<svg xmlns="http://www.w3.org/2000/svg" viewBox="0 0 157.84 50.45"><defs><style>.cls-1{fill:#231f20;}</style></defs><g id="Layer_2" data-name="Layer 2"><g id="Layer_1-2" data-name="Layer 1"><path class="cls-1" d="M0,50.45V0H16.8V50.45ZM19.39,43.3V18.78L31.17,0H48.66Zm11.9,7.15L25.58,38.7l10-14.94L49.46,50.45Z"/><path class="cls-1" d="M54.51,50.45V0H71.32V50.45ZM74,35.32V25.55H86.6V10.07H74V0h19.2l10.11,10.07V25.2L95.46,33,105,50.45H87.06L79.91,35.32Z"/><path class="cls-1" d="M120.51,50.45,110.4,40.37V10.07L120.51,0h6.69V50.45ZM141,20.22V10.07H129.86V0h17.91l10.07,10.07V20.22ZM129.86,50.45V40.37H141V33h16.8v7.37L147.77,50.45Z"/></g></g></svg>